<svg width="7" height="12" viewBox="0 0 7 12" fill="none" xmlns="http://www.w3.org/2000/svg">
<path d="M1.488 4.8C1.232 4.8 1.02 4.716 0.852 4.548C0.684 4.372 0.6 4.156 0.6 3.9C0.6 3.644 0.684 3.432 0.852 3.264C1.02 3.096 1.232 3.012 1.488 3.012C1.744 3.012 1.956 3.096 2.124 3.264C2.292 3.432 2.376 3.644 2.376 3.9C2.376 4.156 2.292 4.372 2.124 4.548C1.956 4.716 1.744 4.8 1.488 4.8ZM1.488 9.072C1.232 9.072 1.02 8.988 0.852 8.82C0.684 8.644 0.6 8.428 0.6 8.172C0.6 7.916 0.684 7.704 0.852 7.536C1.02 7.36 1.232 7.272 1.488 7.272C1.744 7.272 1.956 7.36 2.124 7.536C2.292 7.704 2.376 7.916 2.376 8.172C2.376 8.428 2.292 8.644 2.124 8.82C1.956 8.988 1.744 9.072 1.488 9.072ZM5.48456 10.752C4.62056 9.24 4.18856 7.604 4.18856 5.844C4.18856 4.06 4.62056 2.42 5.48456 0.924C5.58056 0.772 5.68856 0.66 5.80856 0.588C5.93656 0.508 6.06456 0.468 6.19256 0.468C6.32856 0.468 6.44056 0.512 6.52856 0.599999C6.62456 0.679999 6.67256 0.791999 6.67256 0.935999C6.67256 1.048 6.65256 1.148 6.61256 1.236C6.02056 2.692 5.72456 4.228 5.72456 5.844C5.72456 6.652 5.79656 7.432 5.94056 8.184C6.08456 8.928 6.30856 9.676 6.61256 10.428C6.65256 10.516 6.67256 10.616 6.67256 10.728C6.67256 10.872 6.62456 10.984 6.52856 11.064C6.44056 11.152 6.32856 11.196 6.19256 11.196C6.06456 11.196 5.93656 11.16 5.80856 11.088C5.68056 11.016 5.57256 10.904 5.48456 10.752Z" fill="#4D6F80"/>
</svg>
